<?xml version="1.0" encoding="UTF-8"?>
<svg xmlns="http://www.w3.org/2000/svg" version="1.1" width="60000" height="56000" viewBox="-30000 -26000 60000 56000" preserveAspectRatio="xMidYMid meet">
<title>Seirin — regional situation</title>
<rect x="-30000" y="-26000" width="60000" height="56000" fill="#b3cbd7"/>
<g id="base">
</g>
<g id="region">
<path d="M-40000,-4958.72 L-39500,-4949.28 L-39000,-4958.51 L-38500,-4989.43 L-38000,-5043.04 L-37500,-5118.11 L-37000,-5211.25 L-36500,-5317.22 L-36000,-5429.38 L-35500,-5540.39 L-35000,-5642.89 L-34500,-5730.28 L-34000,-5797.33 L-33500,-5840.67 L-33000,-5859.17 L-32500,-5853.91 L-32000,-5828.09 L-31500,-5786.58 L-31000,-5735.38 L-30500,-5680.92 L-30000,-5629.35 L-29500,-5585.85 L-29000,-5554.09 L-28500,-5535.82 L-28000,-5530.71 L-27500,-5536.43 L-27000,-5548.96 L-26500,-5563.08 L-26000,-5573.01 L-25500,-5573.11 L-25000,-5558.58 L-24500,-5526.07 L-24000,-5474.14 L-23500,-5403.46 L-23000,-5316.88 L-22500,-5219.15 L-22000,-5116.47 L-21500,-5015.95 L-21000,-4924.79 L-20500,-4849.67 L-20000,-4795.96 L-19500,-4767.25 L-19000,-4764.97 L-18500,-4788.25 L-18000,-4834.05 L-17500,-4897.49 L-17000,-4972.39 L-16500,-5051.96 L-16000,-5129.46 L-15500,-5199 L-15000,-5256.05 L-14500,-5297.96 L-14000,-5324.16 L-13500,-5336.16 L-13000,-5337.31 L-12500,-5332.36 L-12000,-5326.85 L-11500,-5326.43 L-11000,-5336.15 L-10500,-5359.81 L-10000,-5399.48 L-9500,-5455.17 L-9000,-5524.81 L-8500,-5604.34 L-8000,-5688.14 L-7500,-5769.61 L-7000,-5841.81 L-6500,-5898.23 L-6000,-5933.45 L-5500,-5943.77 L-5000,-5927.56 L-4500,-5885.48 L-4000,-5820.43 L-3500,-5737.22 L-3000,-5642.14 L-2500,-5542.27 L-2000,-5444.76 L-1500,-5356.12 L-1000,-5281.57 L-500,-5224.53 L0,-5186.33 L500,-5166.15 L1000,-5161.17 L1500,-5167.01 L2000,-5178.23 L2500,-5189.06 L3000,-5194.08 L3500,-5188.9 L4000,-5170.69 L4500,-5138.59 L5000,-5093.79 L5500,-5039.48 L6000,-4980.51 L6500,-4922.91 L7000,-4873.15 L7500,-4837.54 L8000,-4821.41 L8500,-4828.58 L9000,-4860.88 L9500,-4917.89 L10000,-4996.95 L10500,-5093.4 L11000,-5201.01 L11500,-5312.61 L12000,-5420.78 L12500,-5518.62 L13000,-5600.39 L13500,-5662.09 L14000,-5701.82 L14500,-5719.85 L15000,-5718.62 L15500,-5702.28 L16000,-5676.27 L16500,-5646.59 L17000,-5619.13 L17500,-5598.95 L18000,-5589.72 L18500,-5593.25 L19000,-5609.32 L19500,-5635.7 L20000,-5668.34 L20500,-5701.94 L21000,-5730.45 L21500,-5747.86 L22000,-5748.87 L22500,-5729.53 L23000,-5687.76 L23500,-5623.6 L24000,-5539.35 L24500,-5439.32 L25000,-5329.51 L25500,-5216.97 L26000,-5109.13 L26500,-5013.1 L27000,-4934.88 L27500,-4878.88 L28000,-4847.4 L28500,-4840.53 L29000,-4856.13 L29500,-4890.14 L30000,-4937.07 L30500,-4990.63 L31000,-5044.44 L31500,-5092.71 L32000,-5130.95 L32500,-5156.35 L33000,-5168.17 L33500,-5167.7 L34000,-5158.13 L34500,-5144.14 L35000,-5131.29 L35500,-5125.39 L36000,-5131.77 L36500,-5154.58 L37000,-5196.31 L37500,-5257.42 L38000,-5336.18 L38500,-5428.78 L39000,-5529.73 L39500,-5632.28 L40000,34000 L-40000,34000 L-40000,-4958.72Z" fill="#eee9dd"/>
<path d="M6750,-4400 L6740.69,-4684.5 L6712.79,-4967.79 L6666.42,-5248.64 L6601.78,-5525.86 L6519.15,-5798.26 L6418.88,-6064.67 L6301.4,-6323.96 L6167.21,-6575 L6016.89,-6816.73 L5851.09,-7048.11 L5670.5,-7268.15 L5475.91,-7475.91 L5268.15,-7670.5 L5048.11,-7851.09 L4816.73,-8016.89 L4575,-8167.21 L4323.96,-8301.4 L4064.67,-8418.88 L3798.26,-8519.15 L3525.86,-8601.78 L3248.64,-8666.42 L2967.79,-8712.79 L2684.5,-8740.69 L2400,-8750 L2115.5,-8740.69 L1832.21,-8712.79 L1551.36,-8666.42 L1274.14,-8601.78 L1001.74,-8519.15 L735.33,-8418.88 L476.04,-8301.4 L225,-8167.21 L-16.73,-8016.89 L-248.11,-7851.09 L-468.15,-7670.5 L-675.91,-7475.91 L-870.5,-7268.15 L-1051.09,-7048.11 L-1216.89,-6816.73 L-1367.21,-6575 L-1501.4,-6323.96 L-1618.88,-6064.67 L-1719.15,-5798.26 L-1801.78,-5525.86 L-1866.42,-5248.64 L-1912.79,-4967.79 L-1940.69,-4684.5 L-1950,-4400 L-1940.69,-4115.5 L-1912.79,-3832.21 L-1866.42,-3551.36 L-1801.78,-3274.14 L-1719.15,-3001.74 L-1618.88,-2735.33 L-1501.4,-2476.04 L-1367.21,-2225 L-1216.89,-1983.27 L-1051.09,-1751.89 L-870.5,-1531.85 L-675.91,-1324.09 L-468.15,-1129.5 L-248.11,-948.91 L-16.73,-783.11 L225,-632.79 L476.04,-498.6 L735.33,-381.12 L1001.74,-280.85 L1274.14,-198.22 L1551.36,-133.58 L1832.21,-87.21 L2115.5,-59.31 L2400,-50 L2684.5,-59.31 L2967.79,-87.21 L3248.64,-133.58 L3525.86,-198.22 L3798.26,-280.85 L4064.67,-381.12 L4323.96,-498.6 L4575,-632.79 L4816.73,-783.11 L5048.11,-948.91 L5268.15,-1129.5 L5475.91,-1324.09 L5670.5,-1531.85 L5851.09,-1751.89 L6016.89,-1983.27 L6167.21,-2225 L6301.4,-2476.04 L6418.88,-2735.33 L6519.15,-3001.74 L6601.78,-3274.14 L6666.42,-3551.36 L6712.79,-3832.21 L6740.69,-4115.5 L6750,-4400Z" fill="#c7d9e2"/>
</g>
<g id="city_extent">
<rect x="-11000" y="-8800" width="23000" height="23300" fill="none" stroke="#8a6a1f" stroke-width="280" opacity="0.9"/>
<text x="500" y="17100" font-family="'Hiragino Sans','Yu Gothic','Noto Sans JP','Source Han Sans JP','MS Gothic',sans-serif" font-size="2100" fill="#2a2f33" text-anchor="middle" font-weight="600">Seirin city area (23 km × 23 km model frame)</text>
<circle cx="1050" cy="1150" r="620" fill="#b03a2e"/>
<text x="1050" y="50" font-family="'Hiragino Sans','Yu Gothic','Noto Sans JP','Source Han Sans JP','MS Gothic',sans-serif" font-size="900" fill="#6b6f72" text-anchor="middle">Hikari-no-Machi</text>
<circle cx="-3250" cy="3150" r="620" fill="#b03a2e"/>
<text x="-3250" y="2050" font-family="'Hiragino Sans','Yu Gothic','Noto Sans JP','Source Han Sans JP','MS Gothic',sans-serif" font-size="900" fill="#6b6f72" text-anchor="middle">Tsukimachi</text>
<circle cx="2700" cy="2650" r="620" fill="#b03a2e"/>
<text x="2700" y="1550" font-family="'Hiragino Sans','Yu Gothic','Noto Sans JP','Source Han Sans JP','MS Gothic',sans-serif" font-size="900" fill="#6b6f72" text-anchor="middle">Tetsuba</text>
<circle cx="6400" cy="-2150" r="620" fill="#b03a2e"/>
<text x="6400" y="-3250" font-family="'Hiragino Sans','Yu Gothic','Noto Sans JP','Source Han Sans JP','MS Gothic',sans-serif" font-size="900" fill="#6b6f72" text-anchor="middle">Seirin-kō</text>
<circle cx="4950" cy="700" r="620" fill="#b03a2e"/>
<text x="4950" y="-400" font-family="'Hiragino Sans','Yu Gothic','Noto Sans JP','Source Han Sans JP','MS Gothic',sans-serif" font-size="900" fill="#6b6f72" text-anchor="middle">Minami-Tetsuba</text>
<circle cx="600" cy="3100" r="620" fill="#b03a2e"/>
<text x="600" y="2000" font-family="'Hiragino Sans','Yu Gothic','Noto Sans JP','Source Han Sans JP','MS Gothic',sans-serif" font-size="900" fill="#6b6f72" text-anchor="middle">Naka-machi</text>
<circle cx="8100" cy="3900" r="620" fill="#b03a2e"/>
<text x="8100" y="2800" font-family="'Hiragino Sans','Yu Gothic','Noto Sans JP','Source Han Sans JP','MS Gothic',sans-serif" font-size="900" fill="#6b6f72" text-anchor="middle">Higashi-kōgai</text>
<circle cx="-7100" cy="2600" r="620" fill="#b03a2e"/>
<text x="-7100" y="1500" font-family="'Hiragino Sans','Yu Gothic','Noto Sans JP','Source Han Sans JP','MS Gothic',sans-serif" font-size="900" fill="#6b6f72" text-anchor="middle">Nishi-kōgai</text>
<circle cx="3350" cy="-700" r="620" fill="#b03a2e"/>
<text x="3350" y="-1800" font-family="'Hiragino Sans','Yu Gothic','Noto Sans JP','Source Han Sans JP','MS Gothic',sans-serif" font-size="900" fill="#6b6f72" text-anchor="middle">Kita-Minato</text>
<circle cx="900" cy="9600" r="620" fill="#b03a2e"/>
<text x="900" y="8500" font-family="'Hiragino Sans','Yu Gothic','Noto Sans JP','Source Han Sans JP','MS Gothic',sans-serif" font-size="900" fill="#6b6f72" text-anchor="middle">Tenro-sanson</text>
<circle cx="3900" cy="8000" r="620" fill="#b03a2e"/>
<text x="3900" y="6900" font-family="'Hiragino Sans','Yu Gothic','Noto Sans JP','Source Han Sans JP','MS Gothic',sans-serif" font-size="900" fill="#6b6f72" text-anchor="middle">Kamikura</text>
<circle cx="-2400" cy="11200" r="620" fill="#b03a2e"/>
<text x="-2400" y="10100" font-family="'Hiragino Sans','Yu Gothic','Noto Sans JP','Source Han Sans JP','MS Gothic',sans-serif" font-size="900" fill="#6b6f72" text-anchor="middle">Shelf-4</text>
<circle cx="5600" cy="10800" r="620" fill="#b03a2e"/>
<text x="5600" y="9700" font-family="'Hiragino Sans','Yu Gothic','Noto Sans JP','Source Han Sans JP','MS Gothic',sans-serif" font-size="900" fill="#6b6f72" text-anchor="middle">Kita-sanson</text>
<circle cx="-8600" cy="7600" r="620" fill="#b03a2e"/>
<text x="-8600" y="6500" font-family="'Hiragino Sans','Yu Gothic','Noto Sans JP','Source Han Sans JP','MS Gothic',sans-serif" font-size="900" fill="#6b6f72" text-anchor="middle">Nishi-sanson</text>
<circle cx="-6400" cy="-3600" r="620" fill="#b03a2e"/>
<text x="-6400" y="-4700" font-family="'Hiragino Sans','Yu Gothic','Noto Sans JP','Source Han Sans JP','MS Gothic',sans-serif" font-size="900" fill="#6b6f72" text-anchor="middle">Minami-nōson</text>
<circle cx="10300" cy="7400" r="620" fill="#b03a2e"/>
<text x="10300" y="6300" font-family="'Hiragino Sans','Yu Gothic','Noto Sans JP','Source Han Sans JP','MS Gothic',sans-serif" font-size="900" fill="#6b6f72" text-anchor="middle">Higashi-sanson</text>
<text x="0" y="27000" font-family="'Hiragino Sans','Yu Gothic','Noto Sans JP','Source Han Sans JP','MS Gothic',sans-serif" font-size="1150" fill="#6b6f72" text-anchor="middle" font-weight="500">to the prefectural capital  ·  62 km</text>
<text x="26000" y="6000" font-family="'Hiragino Sans','Yu Gothic','Noto Sans JP','Source Han Sans JP','MS Gothic',sans-serif" font-size="1150" fill="#6b6f72" text-anchor="middle" font-weight="500">Tōkaidō main line  ·  to Tokyo 2 h 10</text>
<text x="-26000" y="10000" font-family="'Hiragino Sans','Yu Gothic','Noto Sans JP','Source Han Sans JP','MS Gothic',sans-serif" font-size="1150" fill="#6b6f72" text-anchor="middle" font-weight="500">coastal route  ·  west</text>
<text x="6000" y="-22000" font-family="'Hiragino Sans','Yu Gothic','Noto Sans JP','Source Han Sans JP','MS Gothic',sans-serif" font-size="1150" fill="#4c6f86" text-anchor="middle" font-weight="500">Pacific shipping lane</text>
<text x="-13000" y="-9000" font-family="'Hiragino Sans','Yu Gothic','Noto Sans JP','Source Han Sans JP','MS Gothic',sans-serif" font-size="2600" fill="#5d7f95" text-anchor="middle" font-weight="600" letter-spacing="900">S E I R I N   B A Y</text>
<text x="20000" y="20000" font-family="'Hiragino Sans','Yu Gothic','Noto Sans JP','Source Han Sans JP','MS Gothic',sans-serif" font-size="2400" fill="#5d7f95" text-anchor="middle" letter-spacing="700">P A C I F I C   O C E A N</text>
</g>
<g id="furniture">
<path d="M26400,-23720 L26400,-21080" fill="none" stroke="#6b6f72" stroke-width="132" stroke-linejoin="round" stroke-linecap="round"/>
<path d="M25080,-22400 L27720,-22400" fill="none" stroke="#6b6f72" stroke-width="132" stroke-linejoin="round" stroke-linecap="round"/>
<text x="26400" y="-24182" font-family="'Hiragino Sans','Yu Gothic','Noto Sans JP','Source Han Sans JP','MS Gothic',sans-serif" font-size="1254" fill="#2a2f33" text-anchor="middle" font-weight="600">N</text>
<path d="M-27900,-23300 L-17900,-23300" fill="none" stroke="#2a2f33" stroke-width="171.6" stroke-linejoin="round" stroke-linecap="round"/>
<path d="M-27900,-23722.4 L-27900,-22877.6" fill="none" stroke="#2a2f33" stroke-width="145.2" stroke-linejoin="round" stroke-linecap="round"/>
<path d="M-22900,-23722.4 L-22900,-22877.6" fill="none" stroke="#2a2f33" stroke-width="145.2" stroke-linejoin="round" stroke-linecap="round"/>
<path d="M-17900,-23722.4 L-17900,-22877.6" fill="none" stroke="#2a2f33" stroke-width="145.2" stroke-linejoin="round" stroke-linecap="round"/>
<text x="-22900" y="-21782" font-family="'Hiragino Sans','Yu Gothic','Noto Sans JP','Source Han Sans JP','MS Gothic',sans-serif" font-size="950.4" fill="#6b6f72" text-anchor="middle">10 km</text>
</g>
<g id="title">
<text x="-27900" y="26700" font-family="'Hiragino Sans','Yu Gothic','Noto Sans JP','Source Han Sans JP','MS Gothic',sans-serif" font-size="1560" fill="#2a2f33" text-anchor="start" font-weight="700" letter-spacing="108">SEIRIN — REGIONAL SITUATION</text>
<text x="-27900" y="27840" font-family="'Hiragino Sans','Yu Gothic','Noto Sans JP','Source Han Sans JP','MS Gothic',sans-serif" font-size="750" fill="#6b6f72" text-anchor="start">Pacific coast of central Honshu · 34°48′N 138°27′E · model frame 23 × 23 km</text>
<text x="28200" y="-23900" font-family="'Hiragino Sans','Yu Gothic','Noto Sans JP','Source Han Sans JP','MS Gothic',sans-serif" font-size="510" fill="#6b6f72" text-anchor="end">Seirin city generator · vector geometry, no raster data</text>
</g>
<desc>Seirin regional situation map, generated.</desc>
</svg>